<?xml version="1.0" encoding="UTF-8"?>
<svg id="Layer_2" data-name="Layer 2" xmlns="http://www.w3.org/2000/svg" viewBox="0 0 35.317 53.85">
  <defs>
    <style>
      .cls-1 {
        fill: #f2a2cc;
      }

      .cls-2 {
        fill: #111c3b;
      }

      .cls-3 {
        fill: #1b2573;
      }

      .cls-4 {
        fill: #243a8f;
      }

      .cls-5 {
        fill: #15215b;
      }

      .cls-6 {
        fill: #3a8ecf;
      }
    </style>
  </defs>
  <g id="Layer_1-2" data-name="Layer 1">
    <g>
      <polygon class="cls-5" points="19.651 4.658 6.159 4.658 0 1.526 13.492 1.526 19.651 4.658"/>
      <rect class="cls-2" x="6.159" y="4.658" width="13.492" height="24.847"/>
      <polygon class="cls-5" points="24.908 21.849 14.77 21.849 6.159 16.8 16.298 16.8 24.908 21.849"/>
      <polygon class="cls-5" points="29.141 2.131 15.65 2.131 14.77 1.722 28.261 1.722 29.141 2.131"/>
      <rect class="cls-2" x="21.825" y="5" width="13.492" height="48.85"/>
      <rect class="cls-2" x="20.879" y="2.363" width="13.492" height="2.197"/>
      <polygon class="cls-3" points="14.77 48.59 21.825 53.85 21.825 5 14.77 1.722 14.77 48.59"/>
      <polygon class="cls-3" points="15.65 0 20.879 2.363 20.879 4.561 15.65 2.131 15.65 0"/>
      <g>
        <polygon class="cls-1" points="20.062 12.172 21.051 12.677 21.051 7.864 20.062 7.386 20.062 12.172"/>
        <polygon class="cls-4" points="18.51 11.379 19.481 11.875 19.481 7.105 18.51 6.635 18.51 11.379"/>
        <polygon class="cls-4" points="16.986 10.599 17.94 11.087 17.94 6.36 16.986 5.899 16.986 10.599"/>
        <polygon class="cls-4" points="15.488 9.834 16.425 10.313 16.425 5.628 15.488 5.175 15.488 9.834"/>
      </g>
      <g>
        <polygon class="cls-4" points="20.062 18.562 21.051 19.104 21.051 14.291 20.062 13.776 20.062 18.562"/>
        <polygon class="cls-4" points="18.51 17.711 19.481 18.244 19.481 13.474 18.51 12.968 18.51 17.711"/>
        <polygon class="cls-4" points="16.986 16.876 17.94 17.399 17.94 12.671 16.986 12.175 16.986 16.876"/>
        <polygon class="cls-1" points="15.488 16.055 16.425 16.569 16.425 11.883 15.488 11.396 15.488 16.055"/>
      </g>
      <g>
        <polygon class="cls-4" points="20.062 24.953 21.051 25.531 21.051 20.718 20.062 20.166 20.062 24.953"/>
        <polygon class="cls-1" points="18.51 24.044 19.481 24.613 19.481 19.842 18.51 19.301 18.51 24.044"/>
        <polygon class="cls-4" points="16.986 23.152 17.94 23.71 17.94 18.983 16.986 18.451 16.986 23.152"/>
        <polygon class="cls-4" points="15.488 22.275 16.425 22.824 16.425 18.139 15.488 17.616 15.488 22.275"/>
      </g>
      <g>
        <polygon class="cls-4" points="20.062 31.343 21.051 31.959 21.051 27.145 20.062 26.557 20.062 31.343"/>
        <polygon class="cls-4" points="18.51 30.377 19.481 30.981 19.481 26.211 18.51 25.634 18.51 30.377"/>
        <polygon class="cls-4" points="16.986 29.428 17.94 30.022 17.94 25.295 16.986 24.727 16.986 29.428"/>
        <polygon class="cls-4" points="15.488 28.496 16.425 29.079 16.425 24.394 15.488 23.837 15.488 28.496"/>
      </g>
      <g>
        <polygon class="cls-1" points="20.062 37.733 21.051 38.386 21.051 33.572 20.062 32.947 20.062 37.733"/>
        <polygon class="cls-4" points="18.51 36.71 19.481 37.35 19.481 32.58 18.51 31.967 18.51 36.71"/>
        <polygon class="cls-4" points="16.986 35.704 17.94 36.333 17.94 31.606 16.986 31.004 16.986 35.704"/>
        <polygon class="cls-4" points="15.488 34.717 16.425 35.335 16.425 30.65 15.488 30.058 15.488 34.717"/>
      </g>
      <g>
        <polygon class="cls-4" points="20.062 52.535 21.051 53.273 21.051 47.732 20.062 47.026 20.062 52.535"/>
        <polygon class="cls-1" points="18.51 51.378 19.481 52.102 19.481 46.612 18.51 45.919 18.51 51.378"/>
        <polygon class="cls-4" points="16.986 50.242 17.94 50.953 17.94 45.512 16.986 44.831 16.986 50.242"/>
        <polygon class="cls-4" points="15.488 49.126 16.425 49.824 16.425 44.431 15.488 43.763 15.488 49.126"/>
      </g>
      <g>
        <polygon class="cls-3" points="5.442 41.636 15.329 49.007 15.329 22.166 5.442 16.38 5.442 41.636"/>
        <polygon class="cls-4" points="6.439 34.343 14.217 39.747 14.217 37.954 6.439 32.633 6.439 34.343"/>
        <g>
          <polygon class="cls-1" points="11.77 46.354 14.237 48.193 14.237 41.82 11.77 40.076 11.77 46.354"/>
          <polygon class="cls-1" points="9.051 44.327 11.436 46.105 11.436 39.839 9.051 38.153 9.051 44.327"/>
          <polygon class="cls-1" points="6.421 42.366 8.728 44.086 8.728 37.924 6.421 36.293 6.421 42.366"/>
        </g>
        <g>
          <polygon class="cls-4" points="12.697 23.587 14.031 24.392 14.031 23.218 12.697 22.423 12.697 23.587"/>
          <polygon class="cls-1" points="10.616 22.332 11.917 23.116 11.917 21.958 10.616 21.182 10.616 22.332"/>
          <polygon class="cls-4" points="8.587 21.108 9.855 21.873 9.855 20.729 8.587 19.973 8.587 21.108"/>
          <polygon class="cls-4" points="6.608 19.914 7.845 20.66 7.845 19.531 6.608 18.793 6.608 19.914"/>
        </g>
        <g>
          <polygon class="cls-4" points="12.697 25.529 14.031 26.349 14.031 25.175 12.697 24.364 12.697 25.529"/>
          <polygon class="cls-4" points="10.616 24.249 11.917 25.049 11.917 23.89 10.616 23.099 10.616 24.249"/>
          <polygon class="cls-4" points="8.587 23.001 9.855 23.781 9.855 22.637 8.587 21.866 8.587 23.001"/>
          <polygon class="cls-1" points="6.608 21.784 7.845 22.545 7.845 21.415 6.608 20.663 6.608 21.784"/>
        </g>
        <g>
          <polygon class="cls-4" points="12.697 27.47 14.031 28.306 14.031 27.132 12.697 26.306 12.697 27.47"/>
          <polygon class="cls-4" points="10.616 26.166 11.917 26.981 11.917 25.822 10.616 25.016 10.616 26.166"/>
          <polygon class="cls-4" points="8.587 24.894 9.855 25.689 9.855 24.545 8.587 23.759 8.587 24.894"/>
          <polygon class="cls-4" points="6.608 23.654 7.845 24.429 7.845 23.299 6.608 22.533 6.608 23.654"/>
        </g>
        <g>
          <polygon class="cls-1" points="12.697 29.412 14.031 30.263 14.031 29.09 12.697 28.247 12.697 29.412"/>
          <polygon class="cls-4" points="10.616 28.083 11.917 28.913 11.917 27.754 10.616 26.933 10.616 28.083"/>
          <polygon class="cls-4" points="8.587 26.787 9.855 27.597 9.855 26.453 8.587 25.652 8.587 26.787"/>
          <polygon class="cls-4" points="6.608 25.524 7.845 26.313 7.845 25.183 6.608 24.402 6.608 25.524"/>
        </g>
        <g>
          <polygon class="cls-4" points="12.697 31.353 14.031 32.22 14.031 31.047 12.697 30.189 12.697 31.353"/>
          <polygon class="cls-4" points="10.616 30 11.917 30.845 11.917 29.687 10.616 28.85 10.616 30"/>
          <polygon class="cls-4" points="8.587 28.68 9.855 29.505 9.855 28.361 8.587 27.545 8.587 28.68"/>
          <polygon class="cls-4" points="6.608 27.393 7.845 28.198 7.845 27.068 6.608 26.272 6.608 27.393"/>
        </g>
        <g>
          <polygon class="cls-4" points="12.697 33.294 14.031 34.178 14.031 33.004 12.697 32.13 12.697 33.294"/>
          <polygon class="cls-4" points="10.616 31.917 11.917 32.778 11.917 31.619 10.616 30.767 10.616 31.917"/>
          <polygon class="cls-1" points="8.587 30.573 9.855 31.413 9.855 30.269 8.587 29.438 8.587 30.573"/>
          <polygon class="cls-4" points="6.608 29.263 7.845 30.082 7.845 28.952 6.608 28.142 6.608 29.263"/>
        </g>
      </g>
      <polygon class="cls-3" points="0 37.579 6.159 42.171 6.159 4.658 0 1.526 0 37.579"/>
      <g>
        <g>
          <path class="cls-4" d="M1.012,16.575l4.067,2.454c.179.108.325.114.325.013v-.307c0-.101-.146-.271-.325-.378l-4.067-2.437c-.17-.102-.307-.104-.307-.006v.298c0,.098.137.261.307.363Z"/>
          <path class="cls-6" d="M.861,14.948l4.377,2.597c.091.054.165-.053.165-.239h0c0-.186-.074-.381-.165-.435L.861,14.293c-.086-.051-.156.055-.156.235h0c0,.181.07.368.156.42Z"/>
          <path class="cls-4" d="M.861,11.875l4.377,2.509c.091.052.165-.056.165-.242h0c0-.186-.074-.379-.165-.431L.861,11.221c-.086-.049-.156.058-.156.238h0c0,.181.07.367.156.417Z"/>
          <path class="cls-4" d="M.861,10.339l4.377,2.465c.091.051.165-.058.165-.244h0c0-.186-.074-.379-.165-.43L.861,9.684c-.086-.048-.156.059-.156.24h0c0,.181.07.366.156.415Z"/>
          <path class="cls-6" d="M.861,7.267l4.377,2.377c.091.05.165-.061.165-.247h0c0-.186-.074-.377-.165-.426L.861,6.612c-.086-.046-.156.062-.156.243h0c0,.181.07.365.156.412Z"/>
          <path class="cls-6" d="M1.012,5.811l4.067,2.168c.179.096.325.091.325-.01v-.307c0-.101-.146-.26-.325-.355L1.012,5.156c-.17-.09-.307-.083-.307.016v.298c0,.098.137.251.307.342Z"/>
        </g>
        <g>
          <path class="cls-6" d="M1.012,30.257l4.067,2.817c.179.124.325.143.325.042v-.307c0-.101-.146-.284-.325-.407l-4.067-2.8c-.17-.117-.307-.132-.307-.033v.298c0,.098.137.273.307.391Z"/>
          <path class="cls-6" d="M.861,28.616l4.377,2.988c.091.062.165-.038.165-.224h0c0-.186-.074-.387-.165-.449l-4.377-2.97c-.086-.058-.156.041-.156.221h0c0,.181.07.375.156.434Z"/>
          <path class="cls-4" d="M.861,25.544l4.377,2.9c.091.061.165-.041.165-.227h0c0-.186-.074-.386-.165-.446l-4.377-2.882c-.086-.057-.156.044-.156.224h0c0,.181.07.373.156.43Z"/>
          <path class="cls-4" d="M.861,24.008l4.377,2.856c.091.06.165-.043.165-.229h0c0-.186-.074-.385-.165-.444l-4.377-2.838c-.086-.056-.156.045-.156.226h0c0,.181.07.373.156.429Z"/>
          <path class="cls-6" d="M.861,20.935l4.377,2.768c.091.058.165-.046.165-.232h0c0-.186-.074-.384-.165-.441l-4.377-2.75c-.086-.054-.156.048-.156.229h0c0,.181.07.371.156.426Z"/>
          <path class="cls-6" d="M1.012,19.493l4.067,2.531c.179.112.325.12.325.019v-.307c0-.101-.146-.273-.325-.384l-4.067-2.514c-.17-.105-.307-.11-.307-.012v.298c0,.098.137.263.307.369Z"/>
        </g>
      </g>
      <g>
        <polygon class="cls-6" points="3.169 39.941 5.381 41.591 5.381 35.558 3.169 33.993 3.169 39.941"/>
        <polygon class="cls-6" points=".726 38.12 2.869 39.718 2.869 33.781 .726 32.265 .726 38.12"/>
      </g>
      <polygon class="cls-5" points="35.317 5 21.825 5 20.879 4.561 34.371 4.561 35.317 5"/>
      <polygon class="cls-5" points="34.371 2.363 20.879 2.363 15.65 0 29.141 0 34.371 2.363"/>
    </g>
  </g>
</svg>